<svg xmlns="http://www.w3.org/2000/svg" viewBox="0 0 100 100" width="40" height="40" fill="none">
  <rect width="100" height="100" rx="20" fill="#FC8019"/>
  <path d="M50 20C33.4315 20 20 33.4315 20 50C20 66.5685 33.4315 80 50 80C66.5685 80 80 66.5685 80 50C80 33.4315 66.5685 20 50 20ZM50 70C38.9543 70 30 61.0457 30 50C30 38.9543 38.9543 30 50 30C61.0457 30 70 38.9543 70 50C70 61.0457 61.0457 70 50 70Z" fill="white"/>
  <path d="M50 35C41.7157 35 35 41.7157 35 50C35 58.2843 41.7157 65 50 65C58.2843 65 65 58.2843 65 50C65 41.7157 58.2843 35 50 35Z" fill="#FC8019"/>
  <path d="M60 40L40 60M40 40L60 60" stroke="white" stroke-width="5" stroke-linecap="round"/>
</svg>
